<svg xmlns="http://www.w3.org/2000/svg" xmlns:xlink="http://www.w3.org/1999/xlink" viewBox="0 0 288 216"><defs><linearGradient id="linear-gradient" x1="-253.55" y1="407.15" x2="-253.27" y2="406.87" gradientTransform="matrix(189.38, 0, 0, -189.81, 48037.92, 77344.22)" gradientUnits="userSpaceOnUse"><stop offset="0" stop-color="#387eb8"/><stop offset="1" stop-color="#366994"/></linearGradient><linearGradient id="linear-gradient-2" x1="-253.72" y1="407.31" x2="-253.42" y2="407.02" gradientTransform="matrix(189.38, 0, 0, -189.81, 48103.92, 77408.49)" gradientUnits="userSpaceOnUse"><stop offset="0" stop-color="#ffe052"/><stop offset="1" stop-color="#ffc331"/></linearGradient></defs><g id="Layer_2" data-name="Layer 2"><g id="Layer_1-2" data-name="Layer 1"><path d="M63.34,53.88c-27.58,0-25.86,12-25.86,12l0,12.4H63.83V82H27.05S9.4,80,9.4,107.79s15.41,26.84,15.41,26.84H34V121.72s-.49-15.41,15.16-15.41H75.27s14.67.24,14.67-14.17V68.3s2.23-14.42-26.6-14.42ZM48.82,62.22A4.74,4.74,0,1,1,44.09,67a4.73,4.73,0,0,1,4.73-4.73Z" fill="url(#linear-gradient)"/><path d="M64.12,162C91.71,162,90,150,90,150l0-12.39H63.63V133.9h36.78s17.65,2,17.65-25.83-15.41-26.85-15.41-26.85H93.46V94.14s.49,15.4-15.16,15.4H52.19s-14.67-.23-14.67,14.18v23.83S35.3,162,64.12,162Zm14.52-8.33a4.74,4.74,0,1,1,4.73-4.74,4.74,4.74,0,0,1-4.73,4.74Z" fill="url(#linear-gradient-2)"/><rect width="288" height="216" fill="none"/><rect x="134.94" y="95.27" width="21.25" height="3.18" rx="1.19" fill="#c6dae7"/><rect x="138.64" y="79.55" width="16.23" height="3.18" rx="1.19" fill="#c6dae7"/><rect x="193.1" y="79.55" width="16.23" height="3.18" rx="1.19" fill="#30c5a8"/><rect x="193.1" y="89.98" width="28" height="3.18" rx="1.19" fill="#30c5a8"/><rect x="232.82" y="84.84" width="28" height="3.18" rx="1.19" fill="#30c5a8"/><rect x="148.94" y="74.07" width="34.93" height="3.18" rx="1.19" fill="#db898b"/><rect x="134.94" y="68.59" width="21.25" height="3.18" rx="1.19" fill="#c6dae7"/><rect x="130.93" y="62.93" width="21.25" height="3.18" rx="1.19" fill="#c6dae7"/><rect x="185.14" y="62.93" width="40.49" height="3.18" rx="1.19" fill="#c6dae7"/><rect x="166.33" y="62.93" width="16.69" height="3.18" rx="1.19" fill="#c6dae7"/><rect x="190.84" y="84.84" width="40.49" height="3.18" rx="1.19" fill="#db898b"/><rect x="197.36" y="140.26" width="28" height="3.18" rx="1.19" fill="#30c5a8"/><rect x="228.62" y="130.38" width="40.49" height="3.18" rx="1.19" fill="#db898b"/><rect x="147.41" y="84.84" width="40.49" height="3.18" rx="1.19" fill="#b27ee3"/><rect x="261.31" y="74.07" width="16.69" height="3.18" rx="1.19" fill="#c6dae7"/><rect x="155.29" y="62.93" width="7.57" height="3.18" rx="1.19" fill="#c6dae7"/><rect x="228.77" y="74.07" width="30.22" height="3.18" rx="1.19" fill="#f4f192"/><rect x="138.64" y="84.84" width="7.57" height="3.18" rx="1.19" fill="#c6dae7"/><rect x="191.54" y="135.32" width="40.49" height="3.18" rx="1.19" fill="#db898b"/><rect x="172.73" y="135.32" width="16.69" height="3.18" rx="1.19" fill="#c6dae7"/><rect x="153.32" y="135.32" width="16.69" height="3.18" rx="1.19" fill="#f4f192"/><rect x="142.28" y="135.32" width="7.57" height="3.18" rx="1.19" fill="#c6dae7"/><rect x="158.37" y="79.55" width="21.25" height="3.18" rx="1.19" fill="#b27ee3"/><rect x="182.73" y="79.55" width="7.57" height="3.18" rx="1.19" fill="#e39396"/><rect x="142.28" y="130.38" width="16.23" height="3.18" rx="1.19" fill="#c6dae7"/><rect x="196.74" y="130.38" width="16.23" height="3.18" rx="1.19" fill="#30c5a8"/><rect x="162.02" y="130.38" width="21.25" height="3.18" rx="1.19" fill="#db898b"/><rect x="186.37" y="130.38" width="7.57" height="3.18" rx="1.19" fill="#39b0da"/><rect x="215.24" y="130.38" width="10.51" height="3.18" rx="1.19" fill="#f4f192"/><rect x="138.64" y="89.98" width="16.23" height="3.18" rx="1.19" fill="#db898b"/><rect x="141.67" y="100.01" width="16.69" height="3.18" rx="1.19" fill="#c6dae7"/><rect x="130.63" y="100.01" width="7.57" height="3.18" rx="1.19" fill="#c6dae7"/><rect x="158.37" y="89.98" width="21.25" height="3.18" rx="1.19" fill="#39b0da"/><rect x="182.73" y="89.98" width="7.57" height="3.18" rx="1.19" fill="#f4f192"/><rect x="142.28" y="140.26" width="16.23" height="3.18" rx="1.19" fill="#c6dae7"/><rect x="162.02" y="140.26" width="21.25" height="3.18" rx="1.19" fill="#30c5a8"/><rect x="186.37" y="140.26" width="7.57" height="3.18" rx="1.19" fill="#c6dae7"/><rect x="138.64" y="74.07" width="7.57" height="3.18" rx="1.19" fill="#c6dae7"/><rect x="197.13" y="74.07" width="28.51" height="3.18" rx="1.19" fill="#db898b"/><rect x="186.77" y="74.07" width="7.57" height="3.18" rx="1.19" fill="#f4f192"/><rect x="211.38" y="79.55" width="7.57" height="3.18" rx="1.19" fill="#c6dae7"/><rect x="134.57" y="120.51" width="16.23" height="3.18" rx="1.19" fill="#c6dae7"/><rect x="134.57" y="150.15" width="16.23" height="3.18" rx="1.19" fill="#c6dae7"/><rect x="140.92" y="115.03" width="34.93" height="3.18" rx="1.19" fill="#c6dae7"/><rect x="138.21" y="125.44" width="16.23" height="3.18" rx="1.19" fill="#c6dae7"/><rect x="168.02" y="125.44" width="16.23" height="3.18" rx="1.19" fill="#c6dae7"/><rect x="157.65" y="125.44" width="7.57" height="3.18" rx="1.19" fill="#c6dae7"/><rect x="138.21" y="145.28" width="16.23" height="3.18" rx="1.19" fill="#c6dae7"/><rect x="168.02" y="145.28" width="16.23" height="3.18" rx="1.19" fill="#db898b"/><rect x="157.65" y="145.28" width="7.57" height="3.18" rx="1.19" fill="#39b0da"/><rect x="130.93" y="115.03" width="7.57" height="3.18" rx="1.19" fill="#c6dae7"/><rect x="188.76" y="115.03" width="28.51" height="3.18" rx="1.19" fill="#c6dae7"/><rect x="178.76" y="115.03" width="7.57" height="3.18" rx="1.19" fill="#c6dae7"/><path d="M131.56,57.52l1.78-1.78a.45.45,0,0,0,0-.64l-.21-.21a.45.45,0,0,0-.64,0l-2.28,2.28a.43.43,0,0,0-.13.35.41.41,0,0,0,.13.34l2.28,2.29a.46.46,0,0,0,.64,0l.21-.21a.45.45,0,0,0,0-.64Z" fill="#c6dae7"/><path d="M141.32,57.52l-1.78-1.78a.45.45,0,0,1,0-.64l.21-.21a.45.45,0,0,1,.64,0l2.29,2.28a.46.46,0,0,1,.12.35.44.44,0,0,1-.12.34l-2.29,2.29a.46.46,0,0,1-.64,0l-.21-.21a.45.45,0,0,1,0-.64Z" fill="#c6dae7"/><path d="M138,54.07a.52.52,0,0,1,.25.67l-2.69,6.07a.51.51,0,0,1-.68.25l-.3-.14a.5.5,0,0,1-.25-.67L137,54.18a.5.5,0,0,1,.67-.25Z" fill="#c6dae7"/><path d="M131.56,109.16l1.78-1.78a.45.45,0,0,0,0-.64l-.21-.21a.45.45,0,0,0-.64,0l-2.28,2.28a.43.43,0,0,0-.13.35.44.44,0,0,0,.13.35l2.28,2.28a.45.45,0,0,0,.64,0l.21-.21a.45.45,0,0,0,0-.64Z" fill="#c6dae7"/><path d="M141.32,109.16l-1.78-1.78a.45.45,0,0,1,0-.64l.21-.21a.45.45,0,0,1,.64,0l2.29,2.28a.46.46,0,0,1,.12.35.47.47,0,0,1-.12.35l-2.29,2.28a.45.45,0,0,1-.64,0l-.21-.21a.45.45,0,0,1,0-.64Z" fill="#c6dae7"/><path d="M138,105.71a.52.52,0,0,1,.25.67l-2.69,6.07a.51.51,0,0,1-.68.25l-.3-.14a.5.5,0,0,1-.25-.67l2.69-6.07a.5.5,0,0,1,.67-.25Z" fill="#c6dae7"/><path d="M131.56,158.38l1.78-1.78a.45.45,0,0,0,0-.64l-.21-.21a.46.46,0,0,0-.64,0L130.21,158a.41.41,0,0,0-.13.34.43.43,0,0,0,.13.35l2.28,2.28a.45.45,0,0,0,.64,0l.21-.21a.45.45,0,0,0,0-.64Z" fill="#c6dae7"/><path d="M141.32,158.38l-1.78-1.78a.45.45,0,0,1,0-.64l.21-.21a.46.46,0,0,1,.64,0l2.29,2.29a.44.44,0,0,1,.12.34.46.46,0,0,1-.12.35L140.39,161a.45.45,0,0,1-.64,0l-.21-.21a.45.45,0,0,1,0-.64Z" fill="#c6dae7"/><path d="M138,154.93a.53.53,0,0,1,.25.68l-2.69,6.07a.53.53,0,0,1-.68.25l-.3-.15a.49.49,0,0,1-.25-.67L137,155a.51.51,0,0,1,.67-.25Z" fill="#c6dae7"/></g></g></svg>